<?xml version="1.0" encoding="UTF-8"?>
<svg id="Calque_2" data-name="Calque 2" xmlns="http://www.w3.org/2000/svg" viewBox="0 0 627.12 297.77">
  <defs>
    <style>
      .cls-1 {
        fill: #1d1d1b;
      }

      .cls-2 {
        fill: #ee711e;
      }
    </style>
  </defs>
  <g id="Calque_1-2" data-name="Calque 1">
    <path class="cls-1" d="M81.56,35.17c.7,1.87,1.4,3.73,2.1,5.59,4.32,11.54,8.61,23.11,12.87,34.67-15.94,10.24-30.62,22.03-43.41,35.73l28.44-75.99ZM193.22,32.7c-31.74,9.69-63.31,22.25-91.36,39.38L74.49,0h-1.37L0,191.93h51.22v-6.43c-8.27,0-13.88-.67-16.77-2.01-2.87-1.33-4.33-3.99-4.36-7.91h.04c.04-.6.16-1.47.3-2.33.71-3.04,2.54-8.39,5.48-16.08l3.58-9.56c13.48-26.2,34.76-47.35,59.87-64.5,1.21,3.29,2.43,6.58,3.63,9.87,8.59,23.56,16.97,47.19,24.73,71.1,1.82,5.62,1.5,12.14-3.1,15.99-2.46,2.06-5.46,2.84-8.35,3.8l-6.7,1.61v6.45h37.81l-42.67-112.38c27.71-17.95,59.54-31.35,90.47-41.56C280.23,10.85,370.93,2.57,460.46,0c-89.84.71-181.22,7.21-267.24,32.7"/>
    <path class="cls-1" d="M20.69,232.54l5.59,3.36c-2.46,3.01-6.37,4.87-11.06,4.87-8.09,0-13.92-5.55-13.92-13s5.83-12.96,13.92-12.96c4.69,0,8.6,1.86,11.06,4.83l-5.59,3.37c-1.17-1.36-3.01-2.29-5.47-2.29-4.77,0-7.19,3.51-7.19,7.06s2.42,7.09,7.19,7.09c2.46,0,4.3-.93,5.47-2.33"/>
    <polygon class="cls-1" points="53.23 234.54 53.23 240.31 36.3 240.31 36.3 215.24 43.02 215.24 43.02 234.54 53.23 234.54"/>
    <path class="cls-1" d="M86.31,215.24v15.33c0,6.88-4.26,10.21-11.41,10.21s-11.45-3.33-11.45-10.21v-15.33h6.72v14.72c0,3.33,1.72,4.91,4.73,4.91s4.73-1.57,4.73-4.91v-14.72h6.69Z"/>
    <path class="cls-1" d="M119.2,232.68c0,4.44-2.93,7.63-10.09,7.63h-10.98v-25.08h9.97c6.6,0,9.97,2.65,9.97,6.91,0,2.33-1.06,3.91-2.93,4.91v.11c2.62,1.04,4.07,2.9,4.07,5.52M104.86,220.08v5.45h2.89c2.42,0,3.6-1.11,3.6-2.73,0-1.83-1.29-2.72-3.6-2.72h-2.89ZM112.4,232.43c0-1.72-1.25-2.72-3.63-2.72h-3.91v5.77h3.91c2.5,0,3.63-1.33,3.63-3.05"/>
    <rect class="cls-1" x="129.81" y="227.09" width="12.55" height="5.12"/>
    <path class="cls-1" d="M174.31,232.97c0,4.08-3.87,7.81-10.71,7.81-5.05,0-9.81-1.79-11.03-6.45l6.18-1.75c.35,1.43,1.8,2.97,4.77,2.97,2.3,0,4.02-.82,4.02-2.47,0-1.86-2.7-2.15-5.78-2.87-5.47-1.21-7.94-3.54-7.94-7.73,0-4.8,4.34-7.66,10.05-7.66,4.69,0,8.68,2.29,9.73,6.27l-6.18,1.4c-.35-1.22-1.48-2.43-3.87-2.43-1.95,0-3.24.96-3.24,2.4,0,1.97,3.24,2.44,5.35,2.97,6.69,1.72,8.64,3.65,8.64,7.56"/>
    <path class="cls-1" d="M205.63,224.23c0,5.91-4.93,8.67-10.87,8.67h-3.52v7.42h-6.69v-25.07h10.2c6.8,0,10.87,3.58,10.87,8.99M198.83,224.23c0-1.93-1.48-3.19-4.06-3.19h-3.52v6.38h3.52c2.42,0,4.06-1,4.06-3.19"/>
    <path class="cls-1" d="M243.1,227.77c0,7.45-5.83,13-13.92,13s-13.92-5.55-13.92-13,5.82-12.96,13.92-12.96,13.92,5.55,13.92,12.96M236.37,227.77c0-3.55-2.42-7.06-7.19-7.06s-7.19,3.51-7.19,7.06,2.42,7.09,7.19,7.09,7.19-3.55,7.19-7.09"/>
    <path class="cls-1" d="M269.46,240.31l-4.61-8.38h-4.22v8.38h-6.69v-25.08h10.52c6.95,0,10.51,3.66,10.51,8.67,0,3.01-1.6,5.26-4.22,6.63l5.82,9.78h-7.11ZM260.63,226.77h3.83c1.95,0,3.75-.72,3.75-2.86,0-1.87-1.53-2.87-3.75-2.87h-3.83v5.73Z"/>
    <polygon class="cls-1" points="304.35 221.04 297.93 221.04 297.93 240.31 291.25 240.31 291.25 221.04 284.84 221.04 284.84 215.24 304.35 215.24 304.35 221.04"/>
    <path class="cls-1" d="M346.89,240.31l-2.27-1.76c-2.31,1.44-5.16,2.22-8.48,2.22-5.67,0-10.4-2.54-10.4-7.13,0-3.11,2.18-5.44,5.08-6.73-1.29-1.72-2.15-3.48-2.15-5.23,0-4.15,3.24-6.88,8.71-6.88s8.56,2.72,8.56,6.16c0,3.26-2.66,5.73-6.53,6.63,1.56,1.29,3.28,2.65,4.77,3.94.43-.93.78-1.93.94-3.12l5.24.89c-.31,2.15-1.06,4.05-2.11,5.62,3.05,2.47,6.76,5.37,6.76,5.37h-8.13ZM336.77,236.27c1.29,0,2.58-.29,3.71-.86-2-1.47-4.46-3.25-6.57-5.23-1.02.57-1.76,1.54-1.76,2.83,0,1.97,1.92,3.26,4.61,3.26M334.81,221.69c0,.93.59,1.93,1.52,2.97,1.57-.14,3.48-1.18,3.48-3.08,0-1.33-.9-2.33-2.43-2.33s-2.58,1-2.58,2.44"/>
    <polygon class="cls-1" points="393.86 234.54 393.86 240.31 376.66 240.31 376.66 215.24 393.51 215.24 393.51 221.04 383.34 221.04 383.34 224.91 392.26 224.91 392.26 230.39 383.34 230.39 383.34 234.54 393.86 234.54"/>
    <polygon class="cls-1" points="430.5 215.24 420.69 240.31 412.76 240.31 402.94 215.24 409.94 215.24 416.74 235.01 423.5 215.24 430.5 215.24"/>
    <polygon class="cls-1" points="457.57 234.54 457.57 240.31 440.37 240.31 440.37 215.24 457.21 215.24 457.21 221.04 447.05 221.04 447.05 224.91 455.96 224.91 455.96 230.39 447.05 230.39 447.05 234.54 457.57 234.54"/>
    <polygon class="cls-1" points="491.86 215.24 491.86 240.31 486 240.31 475.33 225.7 475.33 240.31 468.61 240.31 468.61 215.24 474.47 215.24 485.14 229.85 485.14 215.24 491.86 215.24"/>
    <polygon class="cls-1" points="522.02 221.04 515.61 221.04 515.61 240.31 508.92 240.31 508.92 221.04 502.51 221.04 502.51 215.24 522.02 215.24 522.02 221.04"/>
    <path class="cls-1" d="M552.41,232.97c0,4.08-3.87,7.81-10.71,7.81-5.05,0-9.81-1.79-11.03-6.45l6.18-1.75c.35,1.43,1.8,2.97,4.77,2.97,2.3,0,4.02-.82,4.02-2.47,0-1.86-2.7-2.15-5.78-2.87-5.47-1.21-7.94-3.54-7.94-7.73,0-4.8,4.34-7.66,10.05-7.66,4.69,0,8.68,2.29,9.73,6.27l-6.18,1.4c-.35-1.22-1.48-2.43-3.87-2.43-1.95,0-3.24.96-3.24,2.4,0,1.97,3.24,2.44,5.35,2.97,6.69,1.72,8.64,3.65,8.64,7.56"/>
    <path class="cls-1" d="M627.12,202.82c-59.8,56.15-145.33,84.45-229.25,92.95-63.62,5.66-127.97-1.27-190.15-13.87-20.65-4.46-41.09-9.6-61.44-15.07,61.81,13.53,124.41,23.26,187.91,24.86,103.08,2.6,215.15-24.69,292.94-88.88"/>
    <path class="cls-2" d="M171.72,90.77c2.68-.2,5.05-.31,7.11-.31,13.38,0,22.07,2.2,26.05,6.59,3.99,4.39,5.98,10.25,5.98,17.55,0,4.19-.59,7.71-1.76,10.58-1.17,2.86-2.77,5.18-4.81,6.94-2.04,1.76-4.7,3.1-7.98,4.02-3.29.92-7.17,1.48-11.63,1.68-4.46.21-8.78.36-12.96.47v-47.52ZM155.33,87.2v104.73h36.2v-3.53h-5.43c-5.13,0-8.6-.61-10.42-1.83-1.8-1.23-2.92-3.11-3.34-5.63-.42-2.54-.63-7.89-.63-16.06v-23.06h4.52c3.07,0,5.32.47,6.77,1.43,1.46.93,4.1,3.57,7.96,7.89,3.84,4.32,7.54,8.83,11.12,13.52,11.14,14.72,19.43,23.82,24.84,27.29h30.52v-3.53c-.42-.01-.85-.04-1.27-.06-6.16-.36-11.53-2.09-16.12-5.15-4.91-3.26-11.66-10.18-20.24-20.76-10.54-13.03-18.18-20.59-22.92-22.68,10.59-1.18,18.63-4.16,24.1-8.96,5.46-4.8,8.18-10.6,8.18-17.39,0-5.82-2.08-10.83-6.26-15.02-4.19-4.19-9.66-7.21-16.44-9.04-6.78-1.84-15.58-2.76-26.39-2.76-6.14,0-14.39.21-24.75.63"/>
    <path class="cls-2" d="M405.42,86.92v3.49c4.49,0,8.37.53,11.58,1.59,3.21,1.06,5.34,2.5,6.38,4.31,1.04,1.81,1.55,5,1.55,9.54v61.4l-67.84-80.33h-16.78v104.25h24.31v-3.49c-6.1,0-10.67-.77-13.69-2.34-3.05-1.56-4.9-3.28-5.53-5.15-.66-1.88-.99-5.76-.99-11.66v-72.82l81.04,96.22h3.63l.03-105.01h-23.68Z"/>
    <path class="cls-2" d="M264.22,86.92v105.01h68.47v-26.18h-2.62c-1.8,7.33-4.02,12.53-6.63,15.6-2.62,3.07-5.74,5.01-9.33,5.81-3.61.79-9.41,1.19-17.41,1.19h-15.9v-50.09h12.6c4.89,0,8.37.29,10.43.89,2.07.59,3.62,1.89,4.69,3.88,1.07,1.98,1.6,5.89,1.6,11.72h3.98v-35.93h-3.98c0,5.17-.36,8.65-1.06,10.42-.7,1.77-2.17,3.12-4.39,3.99-2.22.87-6.13,1.32-11.7,1.32h-12.17v-44.06h15.9c8,0,13.8.4,17.41,1.19,3.59.81,6.71,2.74,9.33,5.81,2.61,3.07,4.83,8.27,6.63,15.6h2.62v-26.17h0s-68.47,0-68.47,0Z"/>
    <path class="cls-2" d="M485,107.4c.54-1.04,1.09-2.08,1.63-3.13l16.59,31.98h-33.02c4.87-9.64,9.81-19.26,14.8-28.86M492.11,84.61l-56.48,107.33h29.3v-3.61l-5.19-.9c-2.24-.53-4.57-.97-6.47-2.12-3.57-2.15-3.82-5.8-2.4-8.94,5.45-12.12,11.31-24.11,17.32-36.07h37.14l16.7,32.21c3,5.66,4.51,9.07,4.51,10.22,0,2.24-1.13,3.74-3.38,4.5-2.24.75-6.59,1.12-13,1.12v3.6h39.71l-56.68-107.33h-1.07Z"/>
  </g>
</svg>